<?xml version="1.0" encoding="UTF-8" standalone="no"?>
<svg
   xmlns:dc="http://purl.org/dc/elements/1.1/"
   xmlns:cc="http://creativecommons.org/ns#"
   xmlns:rdf="http://www.w3.org/1999/02/22-rdf-syntax-ns#"
   xmlns:svg="http://www.w3.org/2000/svg"
   xmlns="http://www.w3.org/2000/svg"
   xmlns:sodipodi="http://sodipodi.sourceforge.net/DTD/sodipodi-0.dtd"
   xmlns:inkscape="http://www.inkscape.org/namespaces/inkscape"
   version="1.1"
   width="117.600000px"
   height="117.600000px"
   xml:space="preserve"
   id="svg4"
   sodipodi:docname="safari-pinned-tab.svg"
   inkscape:version="0.92.5 (2060ec1f9f, 2020-04-08)"><metadata
   id="metadata10"><rdf:RDF><cc:Work
       rdf:about=""><dc:format>image/svg+xml</dc:format><dc:type
         rdf:resource="http://purl.org/dc/dcmitype/StillImage" /></cc:Work></rdf:RDF></metadata><defs
   id="defs8" /><sodipodi:namedview
   pagecolor="#ffffff"
   bordercolor="#666666"
   borderopacity="1"
   objecttolerance="10"
   gridtolerance="10"
   guidetolerance="10"
   inkscape:pageopacity="0"
   inkscape:pageshadow="2"
   inkscape:window-width="2136"
   inkscape:window-height="1031"
   id="namedview6"
   showgrid="false"
   inkscape:zoom="2.0068027"
   inkscape:cx="58.799999"
   inkscape:cy="136.81403"
   inkscape:window-x="1230"
   inkscape:window-y="57"
   inkscape:window-maximized="0"
   inkscape:current-layer="svg4" />
<path
   inkscape:connector-curvature="0"
   d="M 33.012225,51.297981 12.307797,81.876978 c -0.604165,0.980788 0.01962,2.255812 1.163214,2.381353 l 40.851768,4.329196 z M 13.525936,70.986312 28.294637,46.986439 13.261124,37.967116 c -0.523741,-0.313853 -1.188715,0.06277 -1.188715,0.672821 v 31.936406 c 0,0.790515 1.037673,1.084751 1.453527,0.409969 z m 2.126347,21.21836 38.133024,17.195168 c 1.039636,0.48059 2.226388,-0.28051 2.226388,-1.42411 V 95.094075 L 16.08383,90.719759 c -0.872901,-0.09808 -1.222061,1.096521 -0.431547,1.484913 z M 31.584198,41.639185 47.263069,13.600427 c 0.851324,-1.384871 -0.704205,-2.991401 -2.114578,-2.185194 L 15.565974,30.758326 c -0.484508,0.317776 -0.468816,1.03179 0.0255,1.329948 z m 27.566017,1.996883 H 80.57258 L 61.823843,10.607064 c -0.613973,-0.99648 -1.6438,-1.494721 -2.673628,-1.494721 -1.029826,0 -2.059653,0.498241 -2.673627,1.494721 L 37.727851,43.636068 Z M 105.03931,37.967116 90.005795,46.9884 104.77449,70.988273 c 0.41389,0.674782 1.45353,0.380547 1.45353,-0.41193 V 38.639937 c 0,-0.610051 -0.66498,-0.986674 -1.18871,-0.672821 z m -18.323077,3.672069 15.992717,-9.552872 c 0.49628,-0.298159 0.51001,-1.012173 0.0255,-1.329949 L 73.151941,11.415233 c -1.410373,-0.806207 -2.965903,0.800323 -2.114579,2.185194 z M 102.2166,90.719759 62.288737,95.092114 v 12.881666 c 0,1.14555 1.186752,1.90468 2.226387,1.42409 L 102.64814,92.202711 c 0.79053,-0.386431 0.44136,-1.58103 -0.43154,-1.482952 z M 85.288207,51.297981 63.979614,88.587527 104.83138,84.258331 c 1.1436,-0.127503 1.76738,-1.400565 1.16321,-2.381353 z M 59.150215,49.913109 h -19.7001 l 19.7001,34.474686 19.700101,-34.474686 z"
   id="path2"
   style="fill:#808080;stroke-width:0.19615753" /><path
   inkscape:connector-curvature="0"
   d="M 29.140682,50.271406 5.9420991,84.534098 c -0.676947,1.098937 0.022018,2.527555 1.3033408,2.668214 L 53.018402,92.05303 Z M 7.3069823,72.331488 23.854787,45.440479 7.0102694,35.334646 c -0.5868302,-0.351659 -1.3319151,0.07032 -1.3319151,0.753872 v 35.783618 c 0,0.885735 1.1626808,1.215417 1.628628,0.459352 z M 9.6894828,96.10592 52.416179,115.37249 c 1.164882,0.53849 2.494596,-0.3143 2.494596,-1.59565 V 99.34338 L 10.173015,94.442125 C 9.1949516,94.332237 8.8037379,95.670735 9.6894828,96.10592 Z M 27.540628,39.449072 45.10825,8.032637 C 46.062124,6.480934 44.319208,4.6808701 42.73894,5.5841999 L 9.5927705,27.257452 c -0.5428727,0.356052 -0.5252878,1.156085 0.028613,1.49016 z M 58.427372,41.68651 H 82.430379 L 61.423076,4.678678 c -0.687937,-1.1165216 -1.84182,-1.6747872 -2.995704,-1.6747872 -1.153883,0 -2.307766,0.5582655 -2.995703,1.6747872 L 34.424375,41.68651 Z m 51.417108,-6.351864 -16.84452,10.108035 16.5478,26.891008 c 0.46375,0.756065 1.62863,0.426384 1.62863,-0.461553 V 36.088518 c 0,-0.683542 -0.74508,-1.105531 -1.33191,-0.753872 z M 89.314127,39.449072 107.2334,28.74541 c 0.55606,-0.334075 0.57144,-1.134097 0.0287,-1.49016 L 74.115814,5.5841999 C 72.535537,4.6808701 70.792621,6.480934 71.746503,8.032637 Z M 106.68173,94.442125 61.94398,99.3412 v 14.43344 c 0,1.28355 1.329713,2.13413 2.494585,1.59565 L 107.16528,96.10372 c 0.88573,-0.432985 0.49451,-1.771483 -0.48355,-1.661595 z M 87.714073,50.271406 63.838544,92.05303 109.6115,87.202312 c 1.28137,-0.142862 1.9803,-1.569277 1.30334,-2.668214 z M 58.427372,48.719704 H 36.354109 L 58.427372,87.347376 80.500645,48.719704 Z"
   id="path2-3"
   style="fill:#ffffff;stroke-width:0.21978758" /></svg>