<?xml version="1.0" encoding="UTF-8" standalone="no"?>
<svg
   xmlns:dc="http://purl.org/dc/elements/1.1/"
   xmlns:cc="http://creativecommons.org/ns#"
   xmlns:rdf="http://www.w3.org/1999/02/22-rdf-syntax-ns#"
   xmlns:svg="http://www.w3.org/2000/svg"
   xmlns="http://www.w3.org/2000/svg"
   xmlns:sodipodi="http://sodipodi.sourceforge.net/DTD/sodipodi-0.dtd"
   xmlns:inkscape="http://www.inkscape.org/namespaces/inkscape"
   viewBox="0 0 16 16"
   version="1.1"
   id="svg19"
   sodipodi:docname="default.svg"
   inkscape:version="0.92.5 (2060ec1f9f, 2020-04-08)">
  <metadata
     id="metadata23">
    <rdf:RDF>
      <cc:Work
         rdf:about="">
        <dc:format>image/svg+xml</dc:format>
        <dc:type
           rdf:resource="http://purl.org/dc/dcmitype/StillImage" />
      </cc:Work>
    </rdf:RDF>
  </metadata>
  <sodipodi:namedview
     pagecolor="#ffffff"
     bordercolor="#666666"
     borderopacity="1"
     objecttolerance="10"
     gridtolerance="10"
     guidetolerance="10"
     inkscape:pageopacity="0"
     inkscape:pageshadow="2"
     inkscape:window-width="1194"
     inkscape:window-height="767"
     id="namedview21"
     showgrid="false"
     inkscape:zoom="14.75"
     inkscape:cx="8"
     inkscape:cy="8"
     inkscape:window-x="2001"
     inkscape:window-y="369"
     inkscape:window-maximized="0"
     inkscape:current-layer="svg19" />
  <defs
     id="defs7">
    <linearGradient
       id="grad"
       gradientUnits="userSpaceOnUse"
       x1="8"
       y1="0"
       x2="8"
       y2="16">
      <stop
         offset="0"
         style="stop-color:#26B6DB"
         id="stop2" />
      <stop
         offset="1"
         style="stop-color:#0882C8"
         id="stop4" />
    </linearGradient>
  </defs>
  <path
     d="m 4.419262,6.8233552 -2.94595,4.3509558 c -0.085969,0.139554 0.00282,0.320974 0.165515,0.338835 l 5.8126218,0.615982 z m -2.7726231,2.801369 2.1013738,-3.41484 -2.1390568,-1.283322 c -0.074525,-0.04466 -0.1691344,0.0089 -0.1691344,0.09573 v 4.544097 c 0,0.112479 0.1476484,0.154346 0.2068174,0.05833 z m 0.3025486,3.0190748 5.4257864,2.446627 c 0.147929,0.06838 0.3167832,-0.0399 0.3167832,-0.202628 V 13.054916 L 2.0105867,12.432518 c -0.1242004,-0.01396 -0.1738754,0.156014 -0.061399,0.211281 z M 4.2160764,5.4490452 6.4469515,1.4595284 C 6.5680807,1.2624803 6.3467481,1.0338937 6.1460728,1.148606 L 1.9369024,3.9008532 c -0.068931,0.04522 -0.0667,0.14681 0.00356,0.189234 z m 3.9222494,0.284129 H 11.186423 L 8.5187443,1.0336145 C 8.4313853,0.8918305 8.2848553,0.8209373 8.1383258,0.8209373 c -0.146531,0 -0.293058,0.070893 -0.3804165,0.2126772 L 5.0902312,5.7331742 Z m 6.5293662,-0.806612 -2.139056,1.283601 2.101376,3.414843 c 0.05889,0.09601 0.206818,0.05414 0.206818,-0.05861 v -4.544097 c 0,-0.0868 -0.09462,-0.14039 -0.169138,-0.09573 z m -2.607113,0.522483 2.275537,-1.359237 c 0.07061,-0.04243 0.07256,-0.144018 0.0036,-0.189233 L 10.130557,1.148606 C 9.929881,1.0338937 9.7085509,1.2624803 9.829682,1.4595284 Z m 2.205483,6.9834728 -5.68117,0.622121 v 1.832877 c 0,0.163 0.1688592,0.271014 0.3167832,0.202628 l 5.4257898,-2.446627 c 0.112477,-0.05498 0.0628,-0.224954 -0.0614,-0.210999 z M 11.857389,6.8233552 8.8254805,12.129128 14.638108,11.513146 c 0.162718,-0.01817 0.251473,-0.199281 0.165507,-0.338835 z M 8.1383258,6.6263082 H 5.3352795 L 8.1383258,11.531567 10.94137,6.6263082 Z"
     id="path2-3"
     style="fill:#999999;stroke-width:0.02791043"
     inkscape:connector-curvature="0" />
  <path
     d="M 4.3072299,6.9504842 1.2698753,11.135618 c -0.088632,0.134237 0.00287,0.308741 0.1706443,0.325919 l 5.9929877,0.592507 z M 1.4485765,9.6450902 3.6151564,6.3603942 1.4097281,5.1259822 c -0.076834,-0.04295 -0.1743853,0.0086 -0.1743853,0.09208 v 4.370916 c 0,0.108192 0.1522275,0.148459 0.2132337,0.05611 z m 0.3119371,2.9040068 5.5941461,2.353385 c 0.1525146,0.06577 0.3266123,-0.03837 0.3266123,-0.194905 V 12.94455 L 1.8238207,12.34587 C 1.6957654,12.33245 1.6445439,12.495943 1.7605136,12.549097 Z M 4.0977383,5.6285522 6.3978404,1.7910827 C 6.5227304,1.6015445 6.2945325,1.3816698 6.0876305,1.4920099 L 1.7478518,4.1393652 c -0.071079,0.04349 -0.068775,0.141214 0.00376,0.18202 z m 4.0439563,0.2733 H 11.284372 L 8.533919,1.3814015 C 8.4438472,1.2450204 8.2927726,1.1768297 8.1416946,1.1768297 c -0.151076,0 -0.3021525,0.068191 -0.3922229,0.2045718 L 4.9990168,5.9018522 Z m 6.7319644,-0.77587 -2.205426,1.234681 2.166578,3.284695 c 0.06072,0.09235 0.213235,0.05208 0.213235,-0.05638 v -4.370916 c 0,-0.08349 -0.09755,-0.135039 -0.174387,-0.09208 z m -2.688008,0.50257 2.346145,-1.307435 c 0.0728,-0.04081 0.07482,-0.138529 0.0038,-0.18202 L 10.195771,1.4920099 C 9.9888694,1.3816698 9.7606714,1.6015445 9.8855615,1.7910827 Z m 2.273917,6.7173178 -5.8574493,0.598413 v 1.763021 c 0,0.156787 0.1740977,0.260682 0.3266123,0.19491 l 5.594143,-2.353385 c 0.11597,-0.05289 0.06475,-0.216385 -0.06331,-0.202959 z M 11.976158,6.9504842 8.8501725,12.054044 14.843157,11.461537 c 0.167768,-0.01747 0.259276,-0.191682 0.170643,-0.325919 z M 8.1416946,6.7609472 H 5.251673 L 8.1416946,11.479255 11.031714,6.7609472 Z"
     id="path2"
     style="fill:#ffffff;stroke-width:0.02779485"
     inkscape:connector-curvature="0" />
</svg>
