<?xml version="1.0" encoding="UTF-8" standalone="no"?>
<!-- Generator: Adobe Illustrator 18.1.1, SVG Export Plug-In . SVG Version: 6.00 Build 0)  -->

<svg
   xmlns:dc="http://purl.org/dc/elements/1.1/"
   xmlns:cc="http://creativecommons.org/ns#"
   xmlns:rdf="http://www.w3.org/1999/02/22-rdf-syntax-ns#"
   xmlns:svg="http://www.w3.org/2000/svg"
   xmlns="http://www.w3.org/2000/svg"
   xmlns:sodipodi="http://sodipodi.sourceforge.net/DTD/sodipodi-0.dtd"
   xmlns:inkscape="http://www.inkscape.org/namespaces/inkscape"
   version="1.1"
   id="Layer_1"
   x="0px"
   y="0px"
   viewBox="0 0 241.9 181.8"
   enable-background="new 0 0 241.9 181.8"
   xml:space="preserve"
   sodipodi:docname="logo-vertical.svg"
   inkscape:version="0.92.5 (2060ec1f9f, 2020-04-08)"><metadata
   id="metadata60"><rdf:RDF><cc:Work
       rdf:about=""><dc:format>image/svg+xml</dc:format><dc:type
         rdf:resource="http://purl.org/dc/dcmitype/StillImage" /></cc:Work></rdf:RDF></metadata><defs
   id="defs58" /><sodipodi:namedview
   pagecolor="#ffffff"
   bordercolor="#666666"
   borderopacity="1"
   objecttolerance="10"
   gridtolerance="10"
   guidetolerance="10"
   inkscape:pageopacity="0"
   inkscape:pageshadow="2"
   inkscape:window-width="1669"
   inkscape:window-height="899"
   id="namedview56"
   showgrid="false"
   inkscape:zoom="1.1161637"
   inkscape:cx="-50.619814"
   inkscape:cy="90.900002"
   inkscape:window-x="472"
   inkscape:window-y="151"
   inkscape:window-maximized="0"
   inkscape:current-layer="Layer_1" />


<path
   d="M 89.452601,56.825948 63.296744,95.456262 c -0.763291,1.23904 0.02486,2.849793 1.469538,3.008376 l 51.607838,5.469052 z M 64.835642,81.698131 83.492862,51.379196 64.50107,39.985117 c -0.66172,-0.396518 -1.501669,0.07902 -1.501669,0.849946 v 40.34514 c 0,0.998645 1.310904,1.370367 1.836241,0.517883 z m 2.686206,26.805109 48.173282,21.72258 c 1.3134,0.60711 2.81258,-0.35426 2.81258,-1.79905 v -16.2734 l -50.440726,-5.52601 c -1.10272,-0.12394 -1.543763,1.38518 -0.545136,1.87588 z M 87.648607,44.624024 107.45561,9.2027736 c 1.07545,-1.7495072 -0.88967,-3.779035 -2.67138,-2.7605463 L 67.412775,30.878276 c -0.612001,0.40149 -0.592202,1.303465 0.03196,1.680129 z m 34.824003,2.522663 h 27.06278 L 125.85019,5.4212615 c -0.77563,-1.2588408 -2.07661,-1.8882703 -3.37758,-1.8882703 -1.30099,0 -2.60194,0.6294022 -3.37755,1.8882703 L 95.409863,47.146687 Z m 57.97151,-7.16157 -18.99178,11.396556 18.65723,30.318961 c 0.52286,0.85243 1.83625,0.480689 1.83625,-0.520377 V 40.835125 c 0,-0.77066 -0.84009,-1.246464 -1.5017,-0.849946 z m -23.14747,4.638907 20.20354,-12.068096 c 0.62692,-0.376718 0.64423,-1.278675 0.0319,-1.680121 L 140.1608,6.4422273 c -1.78172,-1.0184887 -3.74682,1.0110391 -2.67135,2.7605463 z m 19.58157,62.003336 -50.44073,5.52356 v 16.27334 c 0,1.44721 1.49923,2.40622 2.81259,1.79906 l 48.1733,-21.72258 c 0.99864,-0.48815 0.55758,-1.99727 -0.54514,-1.87338 z m -21.3856,-49.801412 -26.91905,47.107742 51.60788,-5.469052 c 1.44471,-0.161322 2.23273,-1.769336 1.46947,-3.008376 z M 122.47261,55.07645 H 97.585542 l 24.887068,43.55174 24.88706,-43.55174 z"
   id="path2-3"
   style="fill:#999999;stroke-width:0.24780503"
   inkscape:connector-curvature="0" /><path
   d="M 88.457916,57.954673 61.490521,95.112724 c -0.786909,1.191836 0.02575,2.74118 1.515076,2.893702 l 53.209223,5.260624 z M 63.077132,81.878955 82.313289,52.715511 62.732208,41.755683 c -0.682141,-0.381334 -1.548291,0.07635 -1.548291,0.81754 v 38.807533 c 0,0.960588 1.351569,1.318104 1.893215,0.498181 z m 2.769559,25.783455 49.668079,20.89473 c 1.35411,0.58394 2.89984,-0.34067 2.89984,-1.73048 v -15.65317 l -52.005843,-5.31544 c -1.136947,-0.11915 -1.591725,1.33244 -0.562103,1.80436 z M 86.597933,46.217792 107.01958,12.146503 c 1.10883,-1.682829 -0.91723,-3.6350067 -2.75423,-2.6553447 L 65.73427,32.995924 c -0.63109,0.386129 -0.610669,1.25378 0.03374,1.616079 z m 35.904587,2.426517 h 27.90252 L 125.98492,8.5091166 c -0.7997,-1.2108701 -2.14104,-1.8163093 -3.4824,-1.8163093 -1.34134,0 -2.68269,0.6054301 -3.48239,1.8163093 L 94.600003,48.644309 Z m 59.77029,-6.888626 -19.58105,10.962216 19.23613,29.163431 c 0.53912,0.819942 1.89323,0.462398 1.89323,-0.500574 V 42.573223 c 0,-0.741272 -0.86611,-1.198955 -1.54831,-0.81754 z m -23.8657,4.462109 20.83045,-11.608168 c 0.64636,-0.362335 0.66429,-1.229941 0.0338,-1.616079 L 140.7398,9.4911583 c -1.83698,-0.979662 -3.86305,0.9725157 -2.75421,2.6553447 z m 20.18916,59.640258 -52.00584,5.31306 v 15.65312 c 0,1.39205 1.54575,2.31449 2.89986,1.73053 l 49.66805,-20.89472 c 1.02965,-0.46959 0.57488,-1.92119 -0.5621,-1.80199 z M 156.54711,57.954673 128.7928,103.26705 182.002,98.006426 c 1.48954,-0.155115 2.302,-1.701866 1.51507,-2.893702 z M 122.50252,56.271854 H 96.843229 l 25.659291,41.891881 25.65927,-41.891881 z"
   id="path2"
   style="fill:#ffffff;stroke-width:0.24677883"
   inkscape:connector-curvature="0" /><text
   xml:space="preserve"
   style="font-style:normal;font-weight:normal;font-size:40px;line-height:1.25;font-family:sans-serif;letter-spacing:0px;word-spacing:0px;fill:#999999;fill-opacity:1;stroke:none;"
   x="26.877777"
   y="172.4426"
   id="text72"><tspan
     sodipodi:role="line"
     id="tspan70"
     x="26.877777"
     y="172.4426"
     style="font-style:normal;font-variant:normal;font-weight:bold;font-stretch:normal;font-family:sans-serif;-inkscape-font-specification:'sans-serif Bold';fill:#999999;">cyfrSync</tspan></text>
<text
   xml:space="preserve"
   style="font-style:normal;font-weight:normal;font-size:40px;line-height:1.25;font-family:sans-serif;letter-spacing:0px;word-spacing:0px;fill:#ffffff;fill-opacity:1;stroke:none"
   x="25.332272"
   y="171.1767"
   id="text72-0"><tspan
     sodipodi:role="line"
     id="tspan70-8"
     x="25.332272"
     y="171.1767"
     style="font-style:normal;font-variant:normal;font-weight:bold;font-stretch:normal;font-family:sans-serif;-inkscape-font-specification:'sans-serif Bold';fill:#ffffff">cyfrSync</tspan></text>
</svg>