<?xml version="1.0" encoding="UTF-8" standalone="no"?>
<!-- Generator: Adobe Illustrator 18.1.1, SVG Export Plug-In . SVG Version: 6.00 Build 0)  -->

<svg
   xmlns:dc="http://purl.org/dc/elements/1.1/"
   xmlns:cc="http://creativecommons.org/ns#"
   xmlns:rdf="http://www.w3.org/1999/02/22-rdf-syntax-ns#"
   xmlns:svg="http://www.w3.org/2000/svg"
   xmlns="http://www.w3.org/2000/svg"
   xmlns:sodipodi="http://sodipodi.sourceforge.net/DTD/sodipodi-0.dtd"
   xmlns:inkscape="http://www.inkscape.org/namespaces/inkscape"
   version="1.1"
   id="Layer_1"
   x="0px"
   y="0px"
   viewBox="0 0 117.3 117.3"
   enable-background="new 0 0 117.3 117.3"
   xml:space="preserve"
   sodipodi:docname="logo-only.svg"
   inkscape:version="0.92.5 (2060ec1f9f, 2020-04-08)"><metadata
   id="metadata40"><rdf:RDF><cc:Work
       rdf:about=""><dc:format>image/svg+xml</dc:format><dc:type
         rdf:resource="http://purl.org/dc/dcmitype/StillImage" /></cc:Work></rdf:RDF></metadata><defs
   id="defs38" /><sodipodi:namedview
   pagecolor="#ffffff"
   bordercolor="#666666"
   borderopacity="1"
   objecttolerance="10"
   gridtolerance="10"
   guidetolerance="10"
   inkscape:pageopacity="0"
   inkscape:pageshadow="2"
   inkscape:window-width="1253"
   inkscape:window-height="660"
   id="namedview36"
   showgrid="false"
   inkscape:zoom="2.0119352"
   inkscape:cx="-11.183263"
   inkscape:cy="58.650002"
   inkscape:window-x="1619"
   inkscape:window-y="402"
   inkscape:window-maximized="0"
   inkscape:current-layer="Layer_1" />

<path
   d="M 31.62991,52.012175 9.694756,84.408833 c -0.640115,1.03909 0.02088,2.389905 1.232404,2.52291 l 43.280012,4.586524 z M 10.985326,72.870808 26.631876,47.444354 10.704743,37.888909 C 10.149838,37.556403 9.44539,37.955429 9.44539,38.601726 v 33.834741 c 0,0.837511 1.099372,1.149236 1.539936,0.434341 z m 2.252736,22.479613 40.399688,18.217269 c 1.101459,0.50915 2.358725,-0.29718 2.358725,-1.50874 V 98.411566 L 13.695231,93.777245 c -0.924777,-0.103912 -1.29465,1.161695 -0.457169,1.573176 z M 30.117016,41.779248 46.727819,12.073831 C 47.629729,10.606636 45.981715,8.9046114 44.487514,9.7587454 L 13.14659,30.251614 c -0.51325,0.336672 -0.496643,1.093128 0.02657,1.40901 z m 29.204551,2.115584 h 22.69573 L 62.154115,8.9025333 C 61.503649,7.8468289 60.412608,7.3189671 59.321567,7.3189671 c -1.09105,0 -2.182072,0.5278618 -2.832529,1.5835662 L 36.625857,43.894832 Z m 48.616803,-6.005923 -15.927131,9.557524 15.646571,25.426452 c 0.4385,0.714896 1.53994,0.403171 1.53994,-0.436418 V 38.601726 c 0,-0.64632 -0.70451,-1.045323 -1.25938,-0.712817 z M 88.526147,41.779248 105.4695,31.658546 c 0.52578,-0.315883 0.54031,-1.072339 0.027,-1.409001 L 74.155555,9.7587454 c -1.494211,-0.854134 -3.142206,0.8478906 -2.240277,2.3150856 z m 16.421733,51.997997 -42.301239,4.632243 v 13.647362 c 0,1.21366 1.257304,2.01792 2.358725,1.50876 L 105.40508,95.348333 c 0.83749,-0.409393 0.46759,-1.675 -0.4572,-1.571088 z M 87.013224,52.012175 64.438031,91.518267 107.71809,86.931743 c 1.21157,-0.135083 1.87243,-1.48382 1.23234,-2.52291 z M 59.321567,50.544989 h -20.87111 l 20.87111,36.523905 20.871101,-36.523905 z"
   id="path2-3"
   style="fill:#999999;stroke-width:0.20781741"
   inkscape:connector-curvature="0" /><path
   d="M 30.795733,52.958764 8.179992,84.120727 c -0.659937,0.999482 0.02142,2.298817 1.270596,2.426752 l 44.622995,4.411725 z M 9.510579,73.022438 25.642645,48.56503 9.221318,39.373762 c -0.572093,-0.319838 -1.298449,0.06399 -1.298449,0.685646 v 32.545244 c 0,0.805586 1.133465,1.105432 1.58771,0.417786 z m 2.322644,21.622865 41.653269,17.522987 c 1.135607,0.48974 2.431913,-0.28586 2.431913,-1.45125 V 97.589789 L 12.304599,93.132093 c -0.953483,-0.09996 -1.334872,1.11741 -0.471376,1.51321 z M 29.235886,43.115831 46.362143,14.542542 c 0.929914,-1.411277 -0.769216,-3.048434 -2.30978,-2.226858 L 11.738943,32.027537 C 11.2097,32.351375 11.22685,33.079 11.766827,33.38284 Z m 30.110766,2.034955 H 82.746617 L 62.267101,11.492108 c -0.67066,-1.015474 -1.795544,-1.5232141 -2.920449,-1.5232141 -1.124894,0 -2.249789,0.5077401 -2.920439,1.5232141 L 35.946688,45.150786 Z m 50.125318,-5.777024 -16.421312,9.193267 16.132052,24.457407 c 0.4521,0.687647 1.58772,0.387801 1.58772,-0.419784 V 40.059408 c 0,-0.621684 -0.72636,-1.005484 -1.29846,-0.685646 z M 89.457419,43.115831 106.9265,33.380846 c 0.54209,-0.303847 0.55708,-1.031471 0.0279,-1.355303 L 74.640922,12.315684 c -1.540564,-0.821576 -3.239695,0.815581 -2.30978,2.226858 z M 106.3887,93.132093 62.774909,97.58779 v 13.12724 c 0,1.1674 1.296306,1.94101 2.431913,1.45125 L 106.86007,94.643304 c 0.8635,-0.393801 0.48211,-1.611163 -0.47137,-1.511211 z M 87.897561,52.958764 64.621884,90.959204 109.24486,86.547479 c 1.24917,-0.129935 1.93053,-1.42727 1.27058,-2.426752 z M 59.346652,51.547493 H 37.827933 L 59.346652,86.679406 80.865361,51.547493 Z"
   id="path2"
   style="fill:#ffffff;stroke-width:0.20695676"
   inkscape:connector-curvature="0" /></svg>