<?xml version="1.0" encoding="UTF-8" standalone="no"?>
<!-- Generator: Adobe Illustrator 18.1.1, SVG Export Plug-In . SVG Version: 6.00 Build 0)  -->

<svg
   xmlns:dc="http://purl.org/dc/elements/1.1/"
   xmlns:cc="http://creativecommons.org/ns#"
   xmlns:rdf="http://www.w3.org/1999/02/22-rdf-syntax-ns#"
   xmlns:svg="http://www.w3.org/2000/svg"
   xmlns="http://www.w3.org/2000/svg"
   xmlns:sodipodi="http://sodipodi.sourceforge.net/DTD/sodipodi-0.dtd"
   xmlns:inkscape="http://www.inkscape.org/namespaces/inkscape"
   version="1.1"
   id="Layer_1"
   x="0px"
   y="0px"
   viewBox="0 0 429 117.3"
   enable-background="new 0 0 429 117.3"
   xml:space="preserve"
   sodipodi:docname="logo-horizontal.svg"
   inkscape:version="0.92.5 (2060ec1f9f, 2020-04-08)"><metadata
   id="metadata3917"><rdf:RDF><cc:Work
       rdf:about=""><dc:format>image/svg+xml</dc:format><dc:type
         rdf:resource="http://purl.org/dc/dcmitype/StillImage" /></cc:Work></rdf:RDF></metadata><defs
   id="defs3915" /><sodipodi:namedview
   pagecolor="#ffffff"
   bordercolor="#666666"
   borderopacity="1"
   objecttolerance="10"
   gridtolerance="10"
   guidetolerance="10"
   inkscape:pageopacity="0"
   inkscape:pageshadow="2"
   inkscape:window-width="1736"
   inkscape:window-height="684"
   id="namedview3913"
   showgrid="false"
   inkscape:zoom="0.62937063"
   inkscape:cx="214.5"
   inkscape:cy="58.650002"
   inkscape:window-x="1495"
   inkscape:window-y="179"
   inkscape:window-maximized="0"
   inkscape:current-layer="Layer_1" />


<path
   d="M 32.476147,53.453269 9.3592804,87.595278 c -0.67456,1.095064 0.021918,2.518655 1.2987516,2.658824 l 45.611749,4.833623 z M 10.719352,75.43565 27.208876,48.639358 10.423688,38.56912 C 9.8389202,38.218696 9.0964644,38.63923 9.0964644,39.320336 v 35.657575 c 0,0.882625 1.1585836,1.211145 1.6228876,0.457739 z m 2.374111,23.69068 42.576222,19.19873 c 1.160768,0.53657 2.4858,-0.3132 2.4858,-1.59004 V 102.3524 L 13.575288,97.468404 C 12.60068,97.358893 12.210832,98.69268 13.093463,99.12633 Z M 30.881731,42.669047 48.387479,11.363269 C 49.337992,9.81703 47.601216,8.023311 46.026512,8.923455 L 12.997095,30.52037 c -0.540967,0.354807 -0.52344,1.152015 0.02845,1.484912 z M 61.6597,44.898607 H 85.578156 L 64.644851,8.021119 C 63.95934,6.9085346 62.809523,6.3522389 61.6597,6.3522389 c -1.149824,0 -2.29964,0.5562957 -2.985152,1.6688801 L 37.741234,44.898607 Z M 112.8957,38.56912 96.110513,48.641549 112.60003,75.43784 c 0.46212,0.753406 1.6229,0.424886 1.6229,-0.459929 V 39.320336 c 0,-0.681136 -0.74246,-1.10164 -1.32723,-0.751216 z m -20.458042,4.099927 17.856162,-10.66595 c 0.55411,-0.332904 0.56943,-1.130111 0.0285,-1.484912 L 77.292859,8.923455 C 75.718155,8.023311 73.981372,9.81703 74.931891,11.363269 Z M 109.7441,97.468404 65.163915,102.35021 v 14.38261 c 0,1.27904 1.325032,2.12663 2.4858,1.59004 L 110.22593,99.12414 c 0.88262,-0.43146 0.49278,-1.765247 -0.48183,-1.655736 z M 90.843235,53.453269 67.051811,95.087725 112.66355,90.254102 c 1.27685,-0.14236 1.97331,-1.56376 1.29874,-2.658824 z M 61.6597,51.907037 H 39.66417 L 61.6597,90.398646 83.65522,51.907037 Z"
   id="path2"
   style="fill:#999999;stroke-width:0.21901345"
   inkscape:connector-curvature="0" /><path
   d="m 28.399106,50.444837 -23.1169,34.14201 c -0.6746,1.09507 0.022,2.51866 1.2988,2.65883 l 45.6117,4.83362 z m -21.7568,21.98238 16.4895,-26.79629 -16.7852,-10.07024 c -0.5848,-0.35042 -1.3272,0.0701 -1.3272,0.75122 v 35.65757 c 0,0.88263 1.1586,1.21115 1.6229,0.45774 z m 2.3741,23.69069 42.5762,19.198723 c 1.1608,0.53657 2.4858,-0.3132 2.4858,-1.59004 V 99.34397 l -44.5802,-4.883993 c -0.9746,-0.10951 -1.3644,1.22428 -0.4818,1.65793 z m 17.7883,-56.45729 17.5057,-31.30578 c 0.9505,-1.54624 -0.7863,-3.33996 -2.361,-2.43981 l -33.0294,21.59691 c -0.5409,0.35481 -0.5234,1.15202 0.028,1.48492 z m 30.77793,2.22956 h 23.91845 l -20.9333,-36.87749 c -0.68551,-1.11258 -1.83533,-1.66888 -2.98515,-1.66888 -1.14983,0 -2.29963,0.5563 -2.98513,1.66888 l -20.9333,36.87749 z m 51.236004,-6.32949 -16.785194,10.07243 16.489524,26.79629 c 0.46212,0.75341 1.6229,0.42489 1.6229,-0.45993 v -35.65757 c 0,-0.68114 -0.74246,-1.10164 -1.32723,-0.75122 z m -20.458044,4.09993 17.856164,-10.66595 c 0.55411,-0.3329 0.56943,-1.13011 0.0285,-1.48491 L 73.215796,5.915027 c -1.57471,-0.90015 -3.31149,0.89357 -2.36097,2.43981 z m 17.306444,54.79936 -44.580194,4.881803 v 14.38261 c 0,1.27904 1.32504,2.12663 2.4858,1.59004 L 106.14887,96.115707 c 0.88262,-0.43145 0.49278,-1.76524 -0.48183,-1.65573 z m -18.900874,-44.01514 -23.79142,41.63446 45.611744,-4.83362 c 1.27685,-0.14236 1.97331,-1.56376 1.29874,-2.65883 z m -29.18353,-1.54623 h -21.99553 l 21.99553,38.49161 21.99552,-38.49161 z"
   id="path2-3"
   style="fill:#ffffff;stroke-width:0.21901345"
   inkscape:connector-curvature="0" /><text
   xml:space="preserve"
   style="font-style:normal;font-weight:normal;font-size:48.04543686px;line-height:1.25;font-family:sans-serif;letter-spacing:0px;word-spacing:0px;fill:#000000;fill-opacity:1;stroke:none;stroke-width:1.20113599"
   x="118.48495"
   y="79.78447"
   id="text4018"><tspan
     sodipodi:role="line"
     id="tspan4016"
     x="118.48495"
     y="79.78447"
     style="font-style:normal;font-variant:normal;font-weight:bold;font-stretch:normal;font-size:64.06058502px;line-height:544.11456299px;font-family:System-ui;-inkscape-font-specification:'System-ui Bold';stroke-width:1.20113599">cyfrSync</tspan></text>
<text
   xml:space="preserve"
   style="font-style:normal;font-weight:normal;font-size:48.04543686px;line-height:1.25;font-family:sans-serif;letter-spacing:0px;word-spacing:0px;fill:#b3b3b3;fill-opacity:1;stroke:none;stroke-width:1.20113599;"
   x="118.72085"
   y="77.522728"
   id="text4018-1"><tspan
     sodipodi:role="line"
     id="tspan4016-2"
     x="118.72085"
     y="77.522728"
     style="font-style:normal;font-variant:normal;font-weight:bold;font-stretch:normal;font-size:64.06058502px;line-height:544.11456299px;font-family:System-ui;-inkscape-font-specification:'System-ui Bold';fill:#b3b3b3;stroke-width:1.20113599;">cyfrSync</tspan></text>
</svg>